<svg id="svg" version="1.1" xmlns="http://www.w3.org/2000/svg" xmlns:xlink="http://www.w3.org/1999/xlink" width="400" height="400" viewBox="0, 0, 400,400"><g id="svgg"><path id="path0" d="M213.200 24.298 C 206.226 26.573,202.204 28.636,202.815 29.625 C 203.073 30.041,202.769 30.184,202.141 29.943 C 201.513 29.702,199.964 30.472,198.700 31.652 C 197.435 32.833,197.120 33.330,198.000 32.756 C 198.880 32.182,160.664 70.747,113.076 118.456 C 23.362 208.398,24.000 207.712,24.000 214.386 C 24.000 222.110,22.241 220.173,101.028 299.200 L 175.600 374.000 100.625 299.227 C 59.389 258.102,25.231 223.440,24.718 222.201 C 24.205 220.962,23.627 220.107,23.433 220.300 C 21.742 221.991,172.856 374.013,178.574 376.372 C 184.274 378.725,194.224 377.121,196.469 373.488 C 196.857 372.860,196.678 372.758,195.924 373.178 C 195.306 373.522,233.679 334.877,281.199 287.302 C 328.718 239.726,367.777 200.800,367.997 200.800 C 368.217 200.800,329.698 239.500,282.400 286.800 C 235.102 334.100,196.766 372.800,197.210 372.800 C 198.552 372.800,366.785 203.896,369.546 199.777 C 372.275 195.705,376.014 187.800,375.978 186.177 C 375.966 185.640,374.892 187.696,373.591 190.748 C 372.289 193.799,370.839 196.679,370.368 197.148 C 369.897 197.616,370.472 195.898,371.647 193.329 C 376.112 183.563,375.980 186.134,375.991 108.568 C 376.001 28.959,376.319 33.939,370.903 28.884 C 369.773 27.830,369.031 26.674,369.253 26.314 C 369.475 25.955,368.218 24.928,366.460 24.031 C 363.312 22.425,362.174 22.401,291.032 22.436 L 218.800 22.472 213.200 24.298 M364.524 23.812 C 365.032 24.136,332.272 24.400,291.724 24.400 C 251.176 24.400,216.740 24.656,215.200 24.969 C 212.561 25.504,212.584 25.473,215.600 24.430 C 219.109 23.216,362.651 22.621,364.524 23.812 M371.754 29.000 C 377.208 34.748,376.863 28.953,376.620 110.849 C 376.499 151.577,376.634 184.067,376.920 183.050 C 378.251 178.318,377.644 36.806,376.281 34.160 C 374.395 30.497,371.157 26.400,370.148 26.400 C 369.674 26.400,370.396 27.570,371.754 29.000 M110.670 118.600 C 19.861 209.502,22.305 206.831,22.526 214.968 L 22.652 219.600 23.141 214.400 C 23.859 206.764,19.227 211.745,111.481 119.400 C 158.625 72.210,196.834 33.600,196.390 33.600 C 195.946 33.600,157.372 71.850,110.670 118.600 M284.173 93.453 C 284.734 94.014,283.886 94.016,281.497 93.461 C 279.574 93.015,275.300 92.817,272.000 93.021 C 268.213 93.255,266.738 93.146,268.000 92.725 C 270.641 91.843,283.125 92.405,284.173 93.453 M287.497 96.213 C 292.851 98.706,293.107 98.769,292.319 97.400 C 291.985 96.819,292.049 96.679,292.472 97.067 C 292.872 97.433,293.200 98.123,293.200 98.600 C 293.200 99.077,293.700 99.633,294.311 99.837 C 295.067 100.089,295.222 99.855,294.796 99.104 C 294.451 98.497,295.841 99.605,297.884 101.567 C 301.491 105.029,302.444 106.216,300.800 105.200 C 299.468 104.377,299.935 105.877,301.671 108.000 C 303.148 109.805,303.221 109.824,302.426 108.200 C 301.941 107.210,301.755 106.400,302.014 106.400 C 302.272 106.400,303.563 108.706,304.882 111.525 C 310.593 123.728,307.773 139.396,298.230 148.488 C 296.434 150.200,295.248 151.103,295.594 150.496 C 296.022 149.745,295.868 149.511,295.111 149.763 C 294.500 149.967,294.000 150.523,294.000 151.000 C 294.000 151.477,293.672 152.167,293.272 152.533 C 292.842 152.927,292.805 152.748,293.183 152.096 C 293.621 151.341,293.471 151.110,292.711 151.363 C 292.100 151.567,291.600 152.123,291.600 152.600 C 291.600 153.077,291.272 153.767,290.872 154.133 C 290.449 154.521,290.385 154.381,290.719 153.800 C 291.456 152.520,291.218 152.540,287.572 154.063 C 285.910 154.758,283.076 155.643,281.275 156.031 L 278.000 156.735 280.944 156.535 C 285.421 156.230,283.812 157.339,278.884 157.955 C 274.453 158.509,265.385 157.302,263.202 155.868 C 262.230 155.230,262.282 155.168,263.470 155.541 C 264.278 155.795,266.438 156.182,268.270 156.401 C 271.523 156.789,271.507 156.773,267.600 155.709 C 265.400 155.110,262.580 154.208,261.333 153.704 C 260.086 153.201,258.727 152.998,258.313 153.254 C 257.899 153.510,257.659 153.287,257.780 152.759 C 257.901 152.232,257.500 151.618,256.889 151.396 C 256.208 151.149,255.994 151.343,256.336 151.896 C 257.192 153.281,256.333 152.970,255.098 151.446 C 254.151 150.279,254.165 150.188,255.200 150.784 C 255.950 151.216,255.828 150.823,254.876 149.738 C 253.182 147.807,251.222 147.299,252.800 149.200 C 254.546 151.303,253.157 150.487,251.139 148.224 C 250.073 147.028,249.830 146.532,250.600 147.122 C 252.692 148.727,252.294 147.476,249.654 144.153 C 246.598 140.306,244.920 135.932,243.551 128.247 L 242.438 122.000 242.881 127.196 C 243.125 130.054,243.991 134.290,244.806 136.609 C 245.621 138.928,246.006 140.651,245.661 140.438 C 240.873 137.479,241.495 111.431,246.427 108.383 C 246.825 108.137,246.449 109.481,245.593 111.368 C 244.736 113.256,244.036 115.340,244.037 116.000 C 244.037 116.660,244.914 115.070,245.984 112.467 C 247.054 109.863,247.760 107.458,247.552 107.122 C 247.344 106.786,247.595 106.250,248.111 105.932 C 248.751 105.536,248.833 105.708,248.370 106.476 C 247.793 107.433,247.894 107.437,249.046 106.502 C 250.485 105.335,250.951 103.565,249.600 104.400 C 247.965 105.410,248.895 104.235,252.162 101.162 C 254.011 99.423,255.047 98.630,254.464 99.400 C 253.881 100.170,253.764 100.800,254.204 100.800 C 255.252 100.800,256.915 98.781,256.340 98.207 C 256.094 97.961,256.333 97.489,256.870 97.157 C 257.495 96.771,257.641 96.886,257.276 97.476 C 256.487 98.754,256.865 98.667,261.575 96.485 C 263.849 95.431,265.234 94.411,264.654 94.217 C 264.074 94.023,267.920 93.901,273.200 93.945 C 281.888 94.017,283.246 94.233,287.497 96.213 M295.200 100.250 C 295.200 100.388,296.370 101.558,297.800 102.850 L 300.400 105.200 298.050 102.600 C 295.860 100.176,295.200 99.632,295.200 100.250 M303.702 111.600 C 308.344 125.809,306.598 137.096,298.231 146.978 L 295.672 150.000 298.171 147.712 C 306.259 140.309,309.575 123.272,304.840 113.446 C 303.927 111.551,303.415 110.720,303.702 111.600 M273.409 157.366 C 274.404 157.557,275.844 157.550,276.609 157.350 C 277.374 157.149,276.560 156.993,274.800 157.002 C 273.040 157.011,272.414 157.174,273.409 157.366 M187.282 375.839 C 190.485 375.608,191.639 375.739,190.754 376.234 C 188.954 377.241,179.443 376.563,178.220 375.340 C 177.442 374.562,177.784 374.547,179.861 375.271 C 181.304 375.774,184.644 376.030,187.282 375.839 " stroke="none" fill="#000000" fill-rule="evenodd"></path></g></svg>